<svg width="128" height="128" viewBox="0 0 128 128" xmlns="http://www.w3.org/2000/svg" role="img" aria-labelledby="title desc">
  <title id="title">Tiny TODO List icon</title>
  <desc id="desc">A checklist page with grouped task rows and a highlighted completion mark.</desc>
  <defs>
    <linearGradient id="background" x1="18" y1="14" x2="112" y2="118" gradientUnits="userSpaceOnUse">
      <stop offset="0" stop-color="#19C6A4"/>
      <stop offset="0.52" stop-color="#2476F2"/>
      <stop offset="1" stop-color="#4B35D7"/>
    </linearGradient>
    <linearGradient id="paper" x1="37" y1="24" x2="87" y2="111" gradientUnits="userSpaceOnUse">
      <stop offset="0" stop-color="#FFFFFF"/>
      <stop offset="1" stop-color="#EAF1FF"/>
    </linearGradient>
    <filter id="shadow" x="14" y="15" width="100" height="103" filterUnits="userSpaceOnUse" color-interpolation-filters="sRGB">
      <feDropShadow dx="0" dy="7" stdDeviation="7" flood-color="#172036" flood-opacity="0.28"/>
    </filter>
  </defs>
  <rect width="128" height="128" rx="28" fill="url(#background)"/>
  <path d="M31 31C31 26.5817 34.5817 23 39 23H84L100 39V99C100 103.418 96.4183 107 92 107H39C34.5817 107 31 103.418 31 99V31Z" fill="url(#paper)" filter="url(#shadow)"/>
  <path d="M84 23V36C84 39.3137 86.6863 42 90 42H100L84 23Z" fill="#C9D7F0"/>
  <rect x="42" y="48" width="12" height="12" rx="3" fill="#19C6A4"/>
  <path d="M45.2 53.9L48 56.7L53.3 50.8" fill="none" stroke="#FFFFFF" stroke-width="2.4" stroke-linecap="round" stroke-linejoin="round"/>
  <rect x="61" y="49" width="26" height="5" rx="2.5" fill="#1F2A44" opacity="0.88"/>
  <rect x="61" y="57" width="19" height="4" rx="2" fill="#70809B"/>
  <rect x="42" y="69" width="12" height="12" rx="3" fill="#D8E2F3"/>
  <path d="M45.4 74.6H50.6" stroke="#6E7E99" stroke-width="2.4" stroke-linecap="round"/>
  <rect x="61" y="70" width="32" height="5" rx="2.5" fill="#1F2A44" opacity="0.82"/>
  <rect x="61" y="78" width="23" height="4" rx="2" fill="#70809B"/>
  <rect x="42" y="90" width="12" height="12" rx="3" fill="#D8E2F3"/>
  <path d="M45.4 95.6H50.6" stroke="#6E7E99" stroke-width="2.4" stroke-linecap="round"/>
  <rect x="61" y="91" width="22" height="5" rx="2.5" fill="#1F2A44" opacity="0.82"/>
  <rect x="61" y="99" width="30" height="4" rx="2" fill="#70809B"/>
  <circle cx="91" cy="91" r="17" fill="#FFD166"/>
  <path d="M83.6 91.1L89 96.5L99.3 85.1" fill="none" stroke="#243044" stroke-width="5" stroke-linecap="round" stroke-linejoin="round"/>
</svg>
